<svg width="60" height="18" viewBox="0 0 60 18" fill="none" xmlns="http://www.w3.org/2000/svg">
<path d="M14.4 1.63636H13.6V0H12V1.63636H4V0H2.4V1.63636H1.6C0.72 1.63636 0 2.37273 0 3.27273V16.3636C0 17.2636 0.72 18 1.6 18H14.4C15.28 18 16 17.2636 16 16.3636V3.27273C16 2.37273 15.28 1.63636 14.4 1.63636ZM14.4 16.3636H1.6V5.72727H14.4V16.3636Z" fill="#ADBFDF"/>
<path d="M27.1123 8.40137H28.0146C28.4567 8.40137 28.8213 8.32845 29.1084 8.18262C29.4001 8.03223 29.6165 7.82943 29.7578 7.57422C29.9036 7.31445 29.9766 7.02279 29.9766 6.69922C29.9766 6.31641 29.9128 5.99512 29.7852 5.73535C29.6576 5.47559 29.4661 5.27962 29.2109 5.14746C28.9557 5.0153 28.6322 4.94922 28.2402 4.94922C27.8848 4.94922 27.5703 5.01986 27.2969 5.16113C27.028 5.29785 26.8161 5.49382 26.6611 5.74902C26.5107 6.00423 26.4355 6.30501 26.4355 6.65137H25.1709C25.1709 6.14551 25.2985 5.68522 25.5537 5.27051C25.8089 4.85579 26.1667 4.52539 26.627 4.2793C27.0918 4.0332 27.6296 3.91016 28.2402 3.91016C28.8418 3.91016 29.3682 4.01725 29.8193 4.23145C30.2705 4.44108 30.6214 4.75553 30.8721 5.1748C31.1227 5.58952 31.248 6.10677 31.248 6.72656C31.248 6.97721 31.1888 7.24609 31.0703 7.5332C30.9564 7.81576 30.7764 8.08008 30.5303 8.32617C30.2887 8.57227 29.9743 8.77507 29.5869 8.93457C29.1995 9.08952 28.7347 9.16699 28.1924 9.16699H27.1123V8.40137ZM27.1123 9.44043V8.68164H28.1924C28.8258 8.68164 29.3499 8.75684 29.7646 8.90723C30.1794 9.05762 30.5052 9.25814 30.7422 9.50879C30.9837 9.75944 31.1523 10.0352 31.248 10.3359C31.3483 10.6322 31.3984 10.9284 31.3984 11.2246C31.3984 11.6895 31.3187 12.1019 31.1592 12.4619C31.0042 12.8219 30.7832 13.1273 30.4961 13.3779C30.2135 13.6286 29.8809 13.8177 29.498 13.9453C29.1152 14.0729 28.6982 14.1367 28.2471 14.1367C27.8141 14.1367 27.4062 14.0752 27.0234 13.9521C26.6452 13.8291 26.3102 13.6514 26.0186 13.4189C25.7269 13.182 25.499 12.8926 25.335 12.5508C25.1709 12.2044 25.0889 11.8102 25.0889 11.3682H26.3535C26.3535 11.7145 26.4287 12.0176 26.5791 12.2773C26.734 12.5371 26.9528 12.7399 27.2354 12.8857C27.5225 13.027 27.8597 13.0977 28.2471 13.0977C28.6344 13.0977 28.9671 13.0316 29.2451 12.8994C29.5277 12.7627 29.7441 12.5576 29.8945 12.2842C30.0495 12.0107 30.127 11.6667 30.127 11.252C30.127 10.8372 30.0404 10.4977 29.8672 10.2334C29.694 9.96452 29.4479 9.76628 29.1289 9.63867C28.8145 9.50651 28.443 9.44043 28.0146 9.44043H27.1123ZM38.084 6.60352H39.3486L39.2393 9.37207C39.2119 10.0739 39.1322 10.68 39 11.1904C38.8678 11.7008 38.6992 12.1361 38.4941 12.4961C38.2891 12.8516 38.0589 13.1501 37.8037 13.3916C37.5531 13.6331 37.2933 13.8359 37.0244 14H36.3955L36.4297 12.9678L36.6895 12.9609C36.8398 12.7832 36.9857 12.6009 37.127 12.4141C37.2682 12.2227 37.3981 11.9971 37.5166 11.7373C37.6351 11.473 37.7331 11.1517 37.8105 10.7734C37.8926 10.3906 37.945 9.9235 37.9678 9.37207L38.084 6.60352ZM38.3984 6.60352H42.8486V14H41.584V7.77246H38.3984V6.60352ZM36.1084 12.9609H43.7988V16.1807H42.5342V14H37.373V16.1807H36.1016L36.1084 12.9609ZM50.2178 9.80957V10.835H46.3076V9.80957H50.2178ZM46.5742 6.60352V14H45.3096V6.60352H46.5742ZM51.2432 6.60352V14H49.9717V6.60352H51.2432ZM54.7773 10.4727H56.1445L54.0049 14H52.6377L54.7773 10.4727ZM55.8369 6.60352H58.9268V14H57.6621V7.62891H55.8369C55.4769 7.62891 55.1829 7.69043 54.9551 7.81348C54.7272 7.93197 54.5609 8.08691 54.4561 8.27832C54.3512 8.46973 54.2988 8.66797 54.2988 8.87305C54.2988 9.07357 54.3467 9.26725 54.4424 9.4541C54.5381 9.63639 54.6885 9.78678 54.8936 9.90527C55.0986 10.0238 55.363 10.083 55.6865 10.083H58.0039V11.1221H55.6865C55.2627 11.1221 54.8867 11.0651 54.5586 10.9512C54.2305 10.8372 53.9525 10.68 53.7246 10.4795C53.4967 10.2744 53.3236 10.0352 53.2051 9.76172C53.0866 9.48372 53.0273 9.18294 53.0273 8.85938C53.0273 8.53581 53.0889 8.2373 53.2119 7.96387C53.3395 7.69043 53.5218 7.45117 53.7588 7.24609C54.0003 7.04102 54.2943 6.88379 54.6406 6.77441C54.9915 6.66048 55.3903 6.60352 55.8369 6.60352Z" fill="#005FF8"/>
</svg>
