<svg width="104" height="26" viewBox="0 0 104 26" fill="none" xmlns="http://www.w3.org/2000/svg">
<circle cx="4" cy="13" r="4" fill="#ADBFDF"/>
<circle cx="14" cy="13" r="4" fill="#ADBFDF"/>
<path d="M36 4C36 1.79086 37.7909 0 40 0H100C102.209 0 104 1.79086 104 4V22C104 24.2091 102.209 26 100 26H40C37.7909 26 36 24.2091 36 22V4Z" fill="#D8E4FB"/>
<path d="M46.0098 8.04688L48.4023 11.8613L50.7949 8.04688H52.333L49.1885 12.9756L52.4082 18H50.8564L48.4023 14.1104L45.9482 18H44.3965L47.6162 12.9756L44.4717 8.04688H46.0098ZM53.2559 14.3838V14.2266C53.2559 13.6934 53.3333 13.1989 53.4883 12.7432C53.6432 12.2829 53.8665 11.8841 54.1582 11.5469C54.4499 11.2051 54.8031 10.9408 55.2178 10.7539C55.6325 10.5625 56.0973 10.4668 56.6123 10.4668C57.1318 10.4668 57.599 10.5625 58.0137 10.7539C58.4329 10.9408 58.7884 11.2051 59.0801 11.5469C59.3763 11.8841 59.6019 12.2829 59.7568 12.7432C59.9118 13.1989 59.9893 13.6934 59.9893 14.2266V14.3838C59.9893 14.917 59.9118 15.4115 59.7568 15.8672C59.6019 16.3229 59.3763 16.7217 59.0801 17.0635C58.7884 17.4007 58.4352 17.665 58.0205 17.8564C57.6104 18.0433 57.1455 18.1367 56.626 18.1367C56.1064 18.1367 55.6393 18.0433 55.2246 17.8564C54.8099 17.665 54.4544 17.4007 54.1582 17.0635C53.8665 16.7217 53.6432 16.3229 53.4883 15.8672C53.3333 15.4115 53.2559 14.917 53.2559 14.3838ZM54.5205 14.2266V14.3838C54.5205 14.7529 54.5638 15.1016 54.6504 15.4297C54.737 15.7533 54.8669 16.0404 55.04 16.291C55.2178 16.5417 55.4388 16.7399 55.7031 16.8857C55.9674 17.027 56.2751 17.0977 56.626 17.0977C56.9723 17.0977 57.2754 17.027 57.5352 16.8857C57.7995 16.7399 58.0182 16.5417 58.1914 16.291C58.3646 16.0404 58.4945 15.7533 58.5811 15.4297C58.6722 15.1016 58.7178 14.7529 58.7178 14.3838V14.2266C58.7178 13.862 58.6722 13.5179 58.5811 13.1943C58.4945 12.8662 58.3623 12.5768 58.1846 12.3262C58.0114 12.071 57.7926 11.8704 57.5283 11.7246C57.2686 11.5788 56.9632 11.5059 56.6123 11.5059C56.266 11.5059 55.9606 11.5788 55.6963 11.7246C55.4365 11.8704 55.2178 12.071 55.04 12.3262C54.8669 12.5768 54.737 12.8662 54.6504 13.1943C54.5638 13.5179 54.5205 13.862 54.5205 14.2266ZM62.8398 12.0254V20.8438H61.5684V10.6035H62.7305L62.8398 12.0254ZM67.8232 14.2402V14.3838C67.8232 14.9215 67.7594 15.4206 67.6318 15.8809C67.5042 16.3366 67.3174 16.7331 67.0713 17.0703C66.8298 17.4076 66.5312 17.6696 66.1758 17.8564C65.8203 18.0433 65.4124 18.1367 64.9521 18.1367C64.4827 18.1367 64.068 18.0592 63.708 17.9043C63.348 17.7493 63.0426 17.5238 62.792 17.2275C62.5413 16.9313 62.3408 16.5758 62.1904 16.1611C62.0446 15.7464 61.9443 15.2793 61.8896 14.7598V13.9941C61.9443 13.4473 62.0469 12.9574 62.1973 12.5244C62.3477 12.0915 62.5459 11.7223 62.792 11.417C63.0426 11.1071 63.3457 10.8724 63.7012 10.7129C64.0566 10.5488 64.4668 10.4668 64.9316 10.4668C65.3965 10.4668 65.8089 10.5579 66.1689 10.7402C66.529 10.918 66.832 11.1732 67.0781 11.5059C67.3242 11.8385 67.5088 12.2373 67.6318 12.7021C67.7594 13.1624 67.8232 13.6751 67.8232 14.2402ZM66.5518 14.3838V14.2402C66.5518 13.8711 66.513 13.5247 66.4355 13.2012C66.3581 12.873 66.2373 12.5859 66.0732 12.3398C65.9137 12.0892 65.7087 11.8932 65.458 11.752C65.2074 11.6061 64.9089 11.5332 64.5625 11.5332C64.2435 11.5332 63.9655 11.5879 63.7285 11.6973C63.4961 11.8066 63.2979 11.9548 63.1338 12.1416C62.9697 12.3239 62.8353 12.5335 62.7305 12.7705C62.6302 13.0029 62.555 13.2445 62.5049 13.4951V15.2656C62.596 15.5846 62.7236 15.8854 62.8877 16.168C63.0518 16.446 63.2705 16.6715 63.5439 16.8447C63.8174 17.0133 64.1615 17.0977 64.5762 17.0977C64.918 17.0977 65.2119 17.027 65.458 16.8857C65.7087 16.7399 65.9137 16.5417 66.0732 16.291C66.2373 16.0404 66.3581 15.7533 66.4355 15.4297C66.513 15.1016 66.5518 14.7529 66.5518 14.3838ZM69.1016 14.3838V14.2266C69.1016 13.6934 69.179 13.1989 69.334 12.7432C69.4889 12.2829 69.7122 11.8841 70.0039 11.5469C70.2956 11.2051 70.6488 10.9408 71.0635 10.7539C71.4782 10.5625 71.943 10.4668 72.458 10.4668C72.9775 10.4668 73.4447 10.5625 73.8594 10.7539C74.2786 10.9408 74.6341 11.2051 74.9258 11.5469C75.222 11.8841 75.4476 12.2829 75.6025 12.7432C75.7575 13.1989 75.835 13.6934 75.835 14.2266V14.3838C75.835 14.917 75.7575 15.4115 75.6025 15.8672C75.4476 16.3229 75.222 16.7217 74.9258 17.0635C74.6341 17.4007 74.2809 17.665 73.8662 17.8564C73.4561 18.0433 72.9912 18.1367 72.4717 18.1367C71.9521 18.1367 71.485 18.0433 71.0703 17.8564C70.6556 17.665 70.3001 17.4007 70.0039 17.0635C69.7122 16.7217 69.4889 16.3229 69.334 15.8672C69.179 15.4115 69.1016 14.917 69.1016 14.3838ZM70.3662 14.2266V14.3838C70.3662 14.7529 70.4095 15.1016 70.4961 15.4297C70.5827 15.7533 70.7126 16.0404 70.8857 16.291C71.0635 16.5417 71.2845 16.7399 71.5488 16.8857C71.8132 17.027 72.1208 17.0977 72.4717 17.0977C72.818 17.0977 73.1211 17.027 73.3809 16.8857C73.6452 16.7399 73.8639 16.5417 74.0371 16.291C74.2103 16.0404 74.3402 15.7533 74.4268 15.4297C74.5179 15.1016 74.5635 14.7529 74.5635 14.3838V14.2266C74.5635 13.862 74.5179 13.5179 74.4268 13.1943C74.3402 12.8662 74.208 12.5768 74.0303 12.3262C73.8571 12.071 73.6383 11.8704 73.374 11.7246C73.1143 11.5788 72.8089 11.5059 72.458 11.5059C72.1117 11.5059 71.8063 11.5788 71.542 11.7246C71.2822 11.8704 71.0635 12.071 70.8857 12.3262C70.7126 12.5768 70.5827 12.8662 70.4961 13.1943C70.4095 13.5179 70.3662 13.862 70.3662 14.2266ZM77.5303 10.6035H78.7949V16.9609H81.502V10.6035H82.7734V16.9609H85.4736V10.6035H86.7383V18H77.5303V10.6035ZM88.4199 14.3838V14.2266C88.4199 13.6934 88.4974 13.1989 88.6523 12.7432C88.8073 12.2829 89.0306 11.8841 89.3223 11.5469C89.6139 11.2051 89.9671 10.9408 90.3818 10.7539C90.7965 10.5625 91.2614 10.4668 91.7764 10.4668C92.2959 10.4668 92.763 10.5625 93.1777 10.7539C93.597 10.9408 93.9525 11.2051 94.2441 11.5469C94.5404 11.8841 94.766 12.2829 94.9209 12.7432C95.0758 13.1989 95.1533 13.6934 95.1533 14.2266V14.3838C95.1533 14.917 95.0758 15.4115 94.9209 15.8672C94.766 16.3229 94.5404 16.7217 94.2441 17.0635C93.9525 17.4007 93.5993 17.665 93.1846 17.8564C92.7744 18.0433 92.3096 18.1367 91.79 18.1367C91.2705 18.1367 90.8034 18.0433 90.3887 17.8564C89.974 17.665 89.6185 17.4007 89.3223 17.0635C89.0306 16.7217 88.8073 16.3229 88.6523 15.8672C88.4974 15.4115 88.4199 14.917 88.4199 14.3838ZM89.6846 14.2266V14.3838C89.6846 14.7529 89.7279 15.1016 89.8145 15.4297C89.901 15.7533 90.0309 16.0404 90.2041 16.291C90.3818 16.5417 90.6029 16.7399 90.8672 16.8857C91.1315 17.027 91.4391 17.0977 91.79 17.0977C92.1364 17.0977 92.4395 17.027 92.6992 16.8857C92.9635 16.7399 93.1823 16.5417 93.3555 16.291C93.5286 16.0404 93.6585 15.7533 93.7451 15.4297C93.8363 15.1016 93.8818 14.7529 93.8818 14.3838V14.2266C93.8818 13.862 93.8363 13.5179 93.7451 13.1943C93.6585 12.8662 93.5264 12.5768 93.3486 12.3262C93.1755 12.071 92.9567 11.8704 92.6924 11.7246C92.4326 11.5788 92.1273 11.5059 91.7764 11.5059C91.43 11.5059 91.1247 11.5788 90.8604 11.7246C90.6006 11.8704 90.3818 12.071 90.2041 12.3262C90.0309 12.5768 89.901 12.8662 89.8145 13.1943C89.7279 13.5179 89.6846 13.862 89.6846 14.2266Z" fill="#122945"/>
<path d="M40 1H100V-1H40V1ZM103 4V22H105V4H103ZM100 25H40V27H100V25ZM37 22V4H35V22H37ZM40 25C38.3431 25 37 23.6569 37 22H35C35 24.7614 37.2386 27 40 27V25ZM103 22C103 23.6569 101.657 25 100 25V27C102.761 27 105 24.7614 105 22H103ZM100 1C101.657 1 103 2.34315 103 4H105C105 1.23858 102.761 -1 100 -1V1ZM40 -1C37.2386 -1 35 1.23858 35 4H37C37 2.34315 38.3431 1 40 1V-1Z" fill="#ADBFDF"/>
</svg>
