<svg width="108" height="26" viewBox="0 0 108 26" fill="none" xmlns="http://www.w3.org/2000/svg">
<circle cx="4" cy="13" r="4" fill="#28A879"/>
<circle cx="14" cy="13" r="4" fill="#28A879"/>
<circle cx="24" cy="13" r="4" fill="#28A879"/>
<path d="M36 4C36 1.79086 37.7909 0 40 0H104C106.209 0 108 1.79086 108 4V22C108 24.2091 106.209 26 104 26H40C37.7909 26 36 24.2091 36 22V4Z" fill="#DBF8EF"/>
<path d="M52.8184 12.709V13.3379C52.8184 14.0853 52.7249 14.7552 52.5381 15.3477C52.3512 15.9401 52.0824 16.4437 51.7314 16.8584C51.3805 17.2731 50.959 17.5898 50.4668 17.8086C49.9792 18.0273 49.4323 18.1367 48.8262 18.1367C48.2383 18.1367 47.6982 18.0273 47.2061 17.8086C46.7184 17.5898 46.2946 17.2731 45.9346 16.8584C45.5791 16.4437 45.3034 15.9401 45.1074 15.3477C44.9115 14.7552 44.8135 14.0853 44.8135 13.3379V12.709C44.8135 11.9616 44.9092 11.2939 45.1006 10.7061C45.2965 10.1136 45.5723 9.61003 45.9277 9.19531C46.2832 8.77604 46.7048 8.45703 47.1924 8.23828C47.6846 8.01953 48.2246 7.91016 48.8125 7.91016C49.4186 7.91016 49.9655 8.01953 50.4531 8.23828C50.9453 8.45703 51.3669 8.77604 51.7178 9.19531C52.0732 9.61003 52.3444 10.1136 52.5312 10.7061C52.7227 11.2939 52.8184 11.9616 52.8184 12.709ZM51.5127 13.3379V12.6953C51.5127 12.1029 51.4512 11.5788 51.3281 11.123C51.2096 10.6673 51.0342 10.2845 50.8018 9.97461C50.5693 9.66471 50.2845 9.43001 49.9473 9.27051C49.6146 9.111 49.2363 9.03125 48.8125 9.03125C48.4023 9.03125 48.0309 9.111 47.6982 9.27051C47.3701 9.43001 47.0876 9.66471 46.8506 9.97461C46.6182 10.2845 46.4382 10.6673 46.3105 11.123C46.1829 11.5788 46.1191 12.1029 46.1191 12.6953V13.3379C46.1191 13.9349 46.1829 14.4635 46.3105 14.9238C46.4382 15.3796 46.6204 15.7646 46.8574 16.0791C47.099 16.389 47.3838 16.6237 47.7119 16.7832C48.0446 16.9427 48.416 17.0225 48.8262 17.0225C49.2546 17.0225 49.6351 16.9427 49.9678 16.7832C50.3005 16.6237 50.5807 16.389 50.8086 16.0791C51.041 15.7646 51.2165 15.3796 51.335 14.9238C51.4535 14.4635 51.5127 13.9349 51.5127 13.3379ZM57.6172 10.6035V18H56.3457V10.6035H57.6172ZM60.0986 10.6035V11.6289H53.9121V10.6035H60.0986ZM65.7246 10.6035V11.6494H62.1494V10.6035H65.7246ZM66.8389 10.6035V18H65.5742V10.6035H66.8389ZM61.8418 10.6035H63.1133L62.9219 14.1719C62.89 14.7233 62.8376 15.2109 62.7646 15.6348C62.6963 16.054 62.6006 16.4141 62.4775 16.7148C62.359 17.0156 62.2087 17.2617 62.0264 17.4531C61.8486 17.64 61.6344 17.779 61.3838 17.8701C61.1331 17.9567 60.8438 18 60.5156 18H60.1191V16.8857L60.3926 16.8652C60.5885 16.8516 60.7549 16.806 60.8916 16.7285C61.0329 16.651 61.1514 16.5371 61.2471 16.3867C61.3428 16.2318 61.4202 16.0335 61.4795 15.792C61.5433 15.5505 61.5911 15.2633 61.623 14.9307C61.6595 14.598 61.6868 14.2106 61.7051 13.7686L61.8418 10.6035ZM70.2432 15.9971L73.6543 10.6035H74.9258V18H73.6543V12.6064L70.2432 18H68.9854V10.6035H70.2432V15.9971ZM82.5342 10.6035V18H81.2695V10.6035H82.5342ZM82.1035 14.001V15.04C81.8483 15.1357 81.5885 15.2223 81.3242 15.2998C81.0645 15.3727 80.7887 15.432 80.4971 15.4775C80.21 15.5186 79.8978 15.5391 79.5605 15.5391C78.9772 15.5391 78.4714 15.4388 78.043 15.2383C77.6146 15.0332 77.2842 14.7256 77.0518 14.3154C76.8193 13.9007 76.7031 13.3789 76.7031 12.75V10.5898H77.9678V12.75C77.9678 13.1602 78.0293 13.4928 78.1523 13.748C78.2754 14.0033 78.4554 14.1924 78.6924 14.3154C78.9294 14.4339 79.2188 14.4932 79.5605 14.4932C79.8887 14.4932 80.1963 14.4727 80.4834 14.4316C80.7751 14.3861 81.0531 14.3268 81.3174 14.2539C81.5863 14.181 81.8483 14.0967 82.1035 14.001ZM89.5889 13.8096V14.835H85.6787V13.8096H89.5889ZM85.9453 10.6035V18H84.6807V10.6035H85.9453ZM90.6143 10.6035V18H89.3428V10.6035H90.6143ZM92.3164 14.3838V14.2266C92.3164 13.6934 92.3939 13.1989 92.5488 12.7432C92.7038 12.2829 92.9271 11.8841 93.2188 11.5469C93.5104 11.2051 93.8636 10.9408 94.2783 10.7539C94.693 10.5625 95.1579 10.4668 95.6729 10.4668C96.1924 10.4668 96.6595 10.5625 97.0742 10.7539C97.4935 10.9408 97.849 11.2051 98.1406 11.5469C98.4368 11.8841 98.6624 12.2829 98.8174 12.7432C98.9723 13.1989 99.0498 13.6934 99.0498 14.2266V14.3838C99.0498 14.917 98.9723 15.4115 98.8174 15.8672C98.6624 16.3229 98.4368 16.7217 98.1406 17.0635C97.849 17.4007 97.4958 17.665 97.0811 17.8564C96.6709 18.0433 96.2061 18.1367 95.6865 18.1367C95.167 18.1367 94.6999 18.0433 94.2852 17.8564C93.8704 17.665 93.515 17.4007 93.2188 17.0635C92.9271 16.7217 92.7038 16.3229 92.5488 15.8672C92.3939 15.4115 92.3164 14.917 92.3164 14.3838ZM93.5811 14.2266V14.3838C93.5811 14.7529 93.6243 15.1016 93.7109 15.4297C93.7975 15.7533 93.9274 16.0404 94.1006 16.291C94.2783 16.5417 94.4993 16.7399 94.7637 16.8857C95.028 17.027 95.3356 17.0977 95.6865 17.0977C96.0329 17.0977 96.3359 17.027 96.5957 16.8857C96.86 16.7399 97.0788 16.5417 97.252 16.291C97.4251 16.0404 97.555 15.7533 97.6416 15.4297C97.7327 15.1016 97.7783 14.7529 97.7783 14.3838V14.2266C97.7783 13.862 97.7327 13.5179 97.6416 13.1943C97.555 12.8662 97.4229 12.5768 97.2451 12.3262C97.0719 12.071 96.8532 11.8704 96.5889 11.7246C96.3291 11.5788 96.0238 11.5059 95.6729 11.5059C95.3265 11.5059 95.0212 11.5788 94.7568 11.7246C94.4971 11.8704 94.2783 12.071 94.1006 12.3262C93.9274 12.5768 93.7975 12.8662 93.7109 13.1943C93.6243 13.5179 93.5811 13.862 93.5811 14.2266Z" fill="#00A775"/>
<path d="M40 1H104V-1H40V1ZM107 4V22H109V4H107ZM104 25H40V27H104V25ZM37 22V4H35V22H37ZM40 25C38.3431 25 37 23.6569 37 22H35C35 24.7614 37.2386 27 40 27V25ZM107 22C107 23.6569 105.657 25 104 25V27C106.761 27 109 24.7614 109 22H107ZM104 1C105.657 1 107 2.34315 107 4H109C109 1.23858 106.761 -1 104 -1V1ZM40 -1C37.2386 -1 35 1.23858 35 4H37C37 2.34315 38.3431 1 40 1V-1Z" fill="#28A879"/>
</svg>
