<svg width="93" height="26" viewBox="0 0 93 26" fill="none" xmlns="http://www.w3.org/2000/svg">
<circle cx="4" cy="13" r="4" fill="#EA1A4F"/>
<path d="M36 4C36 1.79086 37.7909 0 40 0H89C91.2091 0 93 1.79086 93 4V22C93 24.2091 91.2091 26 89 26H40C37.7909 26 36 24.2091 36 22V4Z" fill="#FEE9EF"/>
<path d="M52.7568 8.04688V18H51.4443V9.12695H46.5361V18H45.2168V8.04688H52.7568ZM59.9004 10.6035V11.6494H56.3252V10.6035H59.9004ZM61.0146 10.6035V18H59.75V10.6035H61.0146ZM56.0176 10.6035H57.2891L57.0977 14.1719C57.0658 14.7233 57.0133 15.2109 56.9404 15.6348C56.8721 16.054 56.7764 16.4141 56.6533 16.7148C56.5348 17.0156 56.3844 17.2617 56.2021 17.4531C56.0244 17.64 55.8102 17.779 55.5596 17.8701C55.3089 17.9567 55.0195 18 54.6914 18H54.2949V16.8857L54.5684 16.8652C54.7643 16.8516 54.9307 16.806 55.0674 16.7285C55.2087 16.651 55.3271 16.5371 55.4229 16.3867C55.5186 16.2318 55.596 16.0335 55.6553 15.792C55.7191 15.5505 55.7669 15.2633 55.7988 14.9307C55.8353 14.598 55.8626 14.2106 55.8809 13.7686L56.0176 10.6035ZM62.7168 14.3838V14.2266C62.7168 13.6934 62.7943 13.1989 62.9492 12.7432C63.1042 12.2829 63.3275 11.8841 63.6191 11.5469C63.9108 11.2051 64.264 10.9408 64.6787 10.7539C65.0934 10.5625 65.5583 10.4668 66.0732 10.4668C66.5928 10.4668 67.0599 10.5625 67.4746 10.7539C67.8939 10.9408 68.2493 11.2051 68.541 11.5469C68.8372 11.8841 69.0628 12.2829 69.2178 12.7432C69.3727 13.1989 69.4502 13.6934 69.4502 14.2266V14.3838C69.4502 14.917 69.3727 15.4115 69.2178 15.8672C69.0628 16.3229 68.8372 16.7217 68.541 17.0635C68.2493 17.4007 67.8962 17.665 67.4814 17.8564C67.0713 18.0433 66.6064 18.1367 66.0869 18.1367C65.5674 18.1367 65.1003 18.0433 64.6855 17.8564C64.2708 17.665 63.9154 17.4007 63.6191 17.0635C63.3275 16.7217 63.1042 16.3229 62.9492 15.8672C62.7943 15.4115 62.7168 14.917 62.7168 14.3838ZM63.9814 14.2266V14.3838C63.9814 14.7529 64.0247 15.1016 64.1113 15.4297C64.1979 15.7533 64.3278 16.0404 64.501 16.291C64.6787 16.5417 64.8997 16.7399 65.1641 16.8857C65.4284 17.027 65.736 17.0977 66.0869 17.0977C66.4333 17.0977 66.7363 17.027 66.9961 16.8857C67.2604 16.7399 67.4792 16.5417 67.6523 16.291C67.8255 16.0404 67.9554 15.7533 68.042 15.4297C68.1331 15.1016 68.1787 14.7529 68.1787 14.3838V14.2266C68.1787 13.862 68.1331 13.5179 68.042 13.1943C67.9554 12.8662 67.8232 12.5768 67.6455 12.3262C67.4723 12.071 67.2536 11.8704 66.9893 11.7246C66.7295 11.5788 66.4242 11.5059 66.0732 11.5059C65.7269 11.5059 65.4215 11.5788 65.1572 11.7246C64.8975 11.8704 64.6787 12.071 64.501 12.3262C64.3278 12.5768 64.1979 12.8662 64.1113 13.1943C64.0247 13.5179 63.9814 13.862 63.9814 14.2266ZM71.7402 10.6035L73.3604 13.2969L75.001 10.6035H76.4844L74.0645 14.2539L76.5596 18H75.0967L73.3877 15.2246L71.6787 18H70.209L72.6973 14.2539L70.2842 10.6035H71.7402ZM77.3594 14.3838V14.2266C77.3594 13.6934 77.4368 13.1989 77.5918 12.7432C77.7467 12.2829 77.9701 11.8841 78.2617 11.5469C78.5534 11.2051 78.9066 10.9408 79.3213 10.7539C79.736 10.5625 80.2008 10.4668 80.7158 10.4668C81.2354 10.4668 81.7025 10.5625 82.1172 10.7539C82.5365 10.9408 82.8919 11.2051 83.1836 11.5469C83.4798 11.8841 83.7054 12.2829 83.8604 12.7432C84.0153 13.1989 84.0928 13.6934 84.0928 14.2266V14.3838C84.0928 14.917 84.0153 15.4115 83.8604 15.8672C83.7054 16.3229 83.4798 16.7217 83.1836 17.0635C82.8919 17.4007 82.5387 17.665 82.124 17.8564C81.7139 18.0433 81.249 18.1367 80.7295 18.1367C80.21 18.1367 79.7428 18.0433 79.3281 17.8564C78.9134 17.665 78.5579 17.4007 78.2617 17.0635C77.9701 16.7217 77.7467 16.3229 77.5918 15.8672C77.4368 15.4115 77.3594 14.917 77.3594 14.3838ZM78.624 14.2266V14.3838C78.624 14.7529 78.6673 15.1016 78.7539 15.4297C78.8405 15.7533 78.9704 16.0404 79.1436 16.291C79.3213 16.5417 79.5423 16.7399 79.8066 16.8857C80.071 17.027 80.3786 17.0977 80.7295 17.0977C81.0758 17.0977 81.3789 17.027 81.6387 16.8857C81.903 16.7399 82.1217 16.5417 82.2949 16.291C82.4681 16.0404 82.598 15.7533 82.6846 15.4297C82.7757 15.1016 82.8213 14.7529 82.8213 14.3838V14.2266C82.8213 13.862 82.7757 13.5179 82.6846 13.1943C82.598 12.8662 82.4658 12.5768 82.2881 12.3262C82.1149 12.071 81.8962 11.8704 81.6318 11.7246C81.3721 11.5788 81.0667 11.5059 80.7158 11.5059C80.3695 11.5059 80.0641 11.5788 79.7998 11.7246C79.54 11.8704 79.3213 12.071 79.1436 12.3262C78.9704 12.5768 78.8405 12.8662 78.7539 13.1943C78.6673 13.5179 78.624 13.862 78.624 14.2266Z" fill="#EA1A4F"/>
<path d="M40 1H89V-1H40V1ZM92 4V22H94V4H92ZM89 25H40V27H89V25ZM37 22V4H35V22H37ZM40 25C38.3431 25 37 23.6569 37 22H35C35 24.7614 37.2386 27 40 27V25ZM92 22C92 23.6569 90.6569 25 89 25V27C91.7614 27 94 24.7614 94 22H92ZM89 1C90.6569 1 92 2.34315 92 4H94C94 1.23858 91.7614 -1 89 -1V1ZM40 -1C37.2386 -1 35 1.23858 35 4H37C37 2.34315 38.3431 1 40 1V-1Z" fill="#EA1A4F"/>
</svg>
